<?xml version="1.0" encoding="UTF-8" standalone="no"?>
<svg
   version="1.1"
   x="0px"
   y="0px"
   viewBox="0 0 100 100"
   enable-background="new 0 0 100 100"
   xml:space="preserve"
   id="svg11"
   sodipodi:docname="telegraph.svg"
   width="100"
   height="100"
   inkscape:version="1.3.2 (091e20ef0f, 2023-11-25, custom)"
   xmlns:inkscape="http://www.inkscape.org/namespaces/inkscape"
   xmlns:sodipodi="http://sodipodi.sourceforge.net/DTD/sodipodi-0.dtd"
   xmlns="http://www.w3.org/2000/svg"
   xmlns:svg="http://www.w3.org/2000/svg"><defs
     id="defs11" /><sodipodi:namedview
     id="namedview11"
     pagecolor="#ffffff"
     bordercolor="#000000"
     borderopacity="0.25"
     inkscape:showpageshadow="2"
     inkscape:pageopacity="0.0"
     inkscape:pagecheckerboard="0"
     inkscape:deskcolor="#d1d1d1"
     inkscape:zoom="7.87"
     inkscape:cx="49.936468"
     inkscape:cy="62.452351"
     inkscape:window-width="2514"
     inkscape:window-height="1343"
     inkscape:window-x="20"
     inkscape:window-y="71"
     inkscape:window-maximized="1"
     inkscape:current-layer="svg11" /><g
     id="g10"
     transform="matrix(1.1681259,0,0,1.1681259,-8.4051269,-10.767077)"><path
       d="M 13.374,52.197"
       id="path1" /><g
       id="g2"><path
         d="m 74.23,37.134 c 0,-0.666 0.545,-1.21 1.21,-1.21 h 14.487 c 0.665,0 1.21,0.544 1.21,1.21 v 0.709 c 0,0.666 -0.545,1.21 -1.21,1.21 H 75.44 c -0.665,0 -1.21,-0.544 -1.21,-1.21 z"
         id="path2" /></g><path
       d="M 56.654,59.548"
       id="path3" /><path
       d="M 11.581,59.548"
       id="path4" /><path
       d="M 11.581,55.917"
       id="path5" /><path
       d="m 41.892,54.326 0.02,-2.979 6.7,-0.674 v 3.636 l 1.993,0.013 v 2.596 l 4.839,-0.003 c 0.67,0 1.211,0.542 1.211,1.211 v 1.193 c 0,0.668 0.542,1.21 1.21,1.21 l 19.9,-0.028 C 66.996,58.493 61.951,53.214 59.232,50.369 58.583,49.69 58.07,49.152 57.646,48.825 c -0.854,-0.657 -1.639,-0.942 -2.321,-0.839 -0.771,0.115 -1.182,0.683 -1.198,0.706 l -0.996,-0.686 c 0.027,-0.041 0.7,-1.008 1.987,-1.212 1.035,-0.167 2.133,0.196 3.268,1.073 0.495,0.383 1.036,0.948 1.721,1.664 3.316,3.469 10.253,10.7 27.382,10.562 l 0.004,0.36 4.101,-0.007 c 0.668,0 1.209,0.542 1.209,1.21 v 6.629 c 0,0.669 -0.541,1.211 -1.209,1.211 H 8.406 c -0.67,0 -1.211,-0.542 -1.211,-1.211 v -6.508 c 0,-0.669 0.541,-1.211 1.211,-1.211 l 1.984,-0.019 c 0.669,0 1.21,-0.542 1.21,-1.211 l -0.02,-1.212 c 0,-0.669 0.542,-1.211 1.211,-1.211 l 27.126,0.003 V 54.32 Z"
       id="path6" /><path
       d="m 21.768,51.001 -7.091,0.992 c -0.65,0.151 -1.3,-0.254 -1.45,-0.904 L 13.126,50.43 c -0.151,-0.65 0.255,-1.3 0.906,-1.45 l 8.959,-1.99 c 1.014,-0.904 2.562,-1.482 4.298,-1.482 0.572,0 1.11,0.063 1.607,0.179 l 42.87,-9.398 c 0.651,-0.151 1.301,0.255 1.451,0.905 l 0.093,0.574 c 0.15,0.65 -0.381,1.293 -1.032,1.443 L 49.955,47.04 32.454,49.49 v 6.596 H 21.768 v -5.085 m 5.316,-3.327 c -0.334,0 -0.604,0.271 -0.604,0.604 0,0.335 0.271,0.605 0.604,0.605 0.336,0 0.606,-0.271 0.606,-0.605 0,-0.334 -0.27,-0.604 -0.606,-0.604 z"
       id="path7" /><path
       d="M 51.323,34.546"
       id="path8" /><path
       d="m 38.994,37.827 c -0.15,-0.652 0.255,-1.302 0.907,-1.452 L 50,34.755 c 0.653,-0.151 1.302,0.256 1.452,0.907 l 0.086,0.259 c 0.151,0.652 -0.254,1.302 -0.907,1.452 l -3.834,0.643 v 2.852 l -3.07,0.528 v -2.949 l -3.231,0.521 c -0.652,0.15 -1.302,-0.256 -1.452,-0.908 z"
       id="path9" /><path
       d="M 38.774,36.532"
       id="path10" /></g></svg>
